<?xml version="1.0" encoding="UTF-8" standalone="no"?>
<!-- Created with Inkscape (http://www.inkscape.org/) -->

<svg
   xmlns:dc="http://purl.org/dc/elements/1.1/"
   xmlns:cc="http://creativecommons.org/ns#"
   xmlns:rdf="http://www.w3.org/1999/02/22-rdf-syntax-ns#"
   xmlns:svg="http://www.w3.org/2000/svg"
   xmlns="http://www.w3.org/2000/svg"
   xmlns:sodipodi="http://sodipodi.sourceforge.net/DTD/sodipodi-0.dtd"
   xmlns:inkscape="http://www.inkscape.org/namespaces/inkscape"
   width="720"
   height="720"
   id="svg2"
   version="1.1"
   inkscape:version="0.47 r22583"
   sodipodi:docname="plain.svg"
   inkscape:export-filename="/home/knoppix/0/720.png"
   inkscape:export-xdpi="90"
   inkscape:export-ydpi="90">
  <defs
     id="defs4">
    <inkscape:perspective
       sodipodi:type="inkscape:persp3d"
       inkscape:vp_x="0 : 526.18109 : 1"
       inkscape:vp_y="0 : 1000 : 0"
       inkscape:vp_z="744.09448 : 526.18109 : 1"
       inkscape:persp3d-origin="372.04724 : 350.78739 : 1"
       id="perspective10" />
  </defs>
  <sodipodi:namedview
     id="base"
     pagecolor="#ffffff"
     bordercolor="#666666"
     borderopacity="1.0"
     inkscape:pageopacity="1"
     inkscape:pageshadow="2"
     inkscape:zoom="1"
     inkscape:cx="360"
     inkscape:cy="320"
     inkscape:document-units="px"
     inkscape:current-layer="layer1"
     showgrid="false"
     inkscape:showpageshadow="false"
     inkscape:window-width="1024"
     inkscape:window-height="719"
     inkscape:window-x="0"
     inkscape:window-y="0"
     inkscape:window-maximized="1"
     inkscape:snap-grids="false"
     inkscape:snap-to-guides="false"
     inkscape:snap-object-midpoints="true"
     inkscape:object-nodes="true" />
  <metadata
     id="metadata7">
    <rdf:RDF>
      <cc:Work
         rdf:about="">
        <dc:format>image/svg+xml</dc:format>
        <dc:type
           rdf:resource="http://purl.org/dc/dcmitype/StillImage" />
        <dc:title></dc:title>
      </cc:Work>
    </rdf:RDF>
  </metadata>
  <g
     inkscape:label="Layer 1"
     inkscape:groupmode="layer"
     id="layer1"
     transform="translate(0,-332.36218)">
    <path
       style="fill:#000000;stroke:none"
       d="m 327.2237318840582,592.2021127122143 c -9.9400546003378,-5.4747869317673 -21.3643998336495,-8.5869565217389 -33.5144927536233,-8.5869565217389 -12.0061902137132,0 -23.2952503186023,3.0511948371502 -33.1521739130435,8.4057971014489 19.9036375942752,-12.2400266872083 33.1521739130435,-34.2317482149988 33.1521739130435,-59.3115942028985 0,25.2129994487975 13.4345793167077,47.2919025140221 33.5144927536233,59.4927536231885 z"
       id="path2986" />
    <path
       id="path3066"
       d="m 393.8903985507249,592.3832721325044 c -9.9400546003378,-5.4747869317677 -21.3643998336495,-8.5869565217389 -33.5144927536234,-8.5869565217389 -12.006190213713,0 -23.2952503186023,3.0511948371501 -33.1521739130433,8.4057971014488 19.9036375942752,-12.2400266872087 33.1521739130432,-34.2317482149988 33.1521739130432,-59.3115942028985 0,25.2129994487974 13.4345793167077,47.2919025140221 33.5144927536235,59.4927536231886 z"
       style="fill:#000000;stroke:none" />
    <path
       style="fill:#000000;stroke:none"
       d="m 360.3759057971015,532.8905185093158 c -9.9400546003377,-5.4747869317675 -21.3643998336494,-8.5869565217387 -33.5144927536233,-8.5869565217387 -12.0061902137129,0 -23.2952503186024,3.0511948371501 -33.1521739130435,8.4057971014487 19.9036375942753,-12.2400266872087 33.1521739130435,-34.2317482149986 33.1521739130435,-59.3115942028982 0,25.2129994487971 13.4345793167076,47.291902514022 33.5144927536233,59.4927536231882 z"
       id="path3068" />
    <path
       id="path3070"
       d="m 427.0425724637683,533.0716779296059 c -9.9400546003377,-5.4747869317677 -21.3643998336494,-8.5869565217388 -33.5144927536234,-8.5869565217388 -12.0061902137128,0 -23.2952503186023,3.0511948371501 -33.1521739130434,8.4057971014487 19.9036375942753,-12.2400266872087 33.1521739130434,-34.2317482149986 33.1521739130434,-59.3115942028982 0,25.2129994487969 13.4345793167077,47.2919025140218 33.5144927536234,59.4927536231883 z"
       style="fill:#000000;stroke:none" />
    <path
       style="fill:#000000;stroke:none"
       d="m 460.5570652173917,592.5644315527944 c -9.9400546003377,-5.4747869317679 -21.3643998336495,-8.5869565217388 -33.5144927536234,-8.5869565217388 -12.0061902137128,0 -23.2952503186024,3.0511948371501 -33.1521739130434,8.4057971014488 19.9036375942753,-12.2400266872089 33.1521739130434,-34.2317482149989 33.1521739130434,-59.3115942028985 0,25.2129994487967 13.4345793167077,47.291902514022 33.5144927536234,59.4927536231885 z"
       id="path3072" />
    <path
       id="path3074"
       d="m 427.4048913043483,651.8760257556925 c -9.9400546003377,-5.4747869317677 -21.3643998336495,-8.5869565217386 -33.5144927536234,-8.5869565217386 -12.0061902137129,0 -23.2952503186024,3.0511948371501 -33.1521739130434,8.4057971014487 19.9036375942754,-12.240026687209 33.1521739130434,-34.2317482149987 33.1521739130434,-59.3115942028983 0,25.2129994487967 13.4345793167077,47.2919025140219 33.5144927536234,59.4927536231882 z"
       style="fill:#000000;stroke:none" />
    <path
       style="fill:#000000;stroke:none"
       d="m 360.7382246376815,651.6948663354024 c -9.9400546003377,-5.4747869317677 -21.3643998336495,-8.5869565217386 -33.5144927536233,-8.5869565217386 -12.0061902137129,0 -23.2952503186024,3.0511948371501 -33.1521739130435,8.4057971014487 19.9036375942754,-12.240026687209 33.1521739130435,-34.2317482149987 33.1521739130435,-59.3115942028983 0,25.2129994487967 13.4345793167076,47.2919025140219 33.5144927536233,59.4927536231882 z"
       id="path3076" />
    <path
       id="path3078"
       d="m 294.0715579710147,651.5137069151126 c -9.9400546003376,-5.4747869317679 -21.3643998336494,-8.5869565217388 -33.5144927536233,-8.5869565217388 -12.0061902137129,0 -23.2952503186023,3.05119483715 -33.1521739130434,8.4057971014487 19.9036375942753,-12.240026687209 33.1521739130434,-34.2317482149987 33.1521739130434,-59.3115942028983 0,25.2129994487967 13.4345793167077,47.2919025140219 33.5144927536233,59.4927536231884 z"
       style="fill:#000000;stroke:none" />
    <path
       style="fill:#000000;stroke:none"
       d="m 494.0715579710151,652.0571851759826 c -9.9400546003377,-5.4747869317679 -21.3643998336495,-8.5869565217387 -33.5144927536234,-8.5869565217387 -12.0061902137129,0 -23.2952503186024,3.0511948371501 -33.1521739130434,8.4057971014486 19.9036375942752,-12.2400266872089 33.1521739130434,-34.2317482149984 33.1521739130434,-59.3115942028982 0,25.2129994487967 13.4345793167077,47.291902514022 33.5144927536234,59.4927536231883 z"
       id="path3080" />
    <path
       id="path3082"
       d="m 393.5280797101449,473.5789243064176 c -9.9400546003377,-5.4747869317679 -21.3643998336494,-8.5869565217388 -33.5144927536233,-8.5869565217388 -12.0061902137129,0 -23.2952503186023,3.0511948371501 -33.1521739130435,8.4057971014488 19.9036375942753,-12.2400266872089 33.1521739130435,-34.2317482149987 33.1521739130435,-59.3115942028985 0,25.212999448797 13.4345793167076,47.2919025140221 33.5144927536233,59.4927536231885 z"
       style="fill:#000000;stroke:none" />
    <path
       style="fill:#000000;stroke:none"
       d="m 260.9193840579713,710.8253011180107 c -9.9400546003376,-5.4747869317678 -21.3643998336493,-8.5869565217386 -33.5144927536232,-8.5869565217386 -12.006190213713,0 -23.2952503186024,3.0511948371498 -33.1521739130435,8.4057971014483 19.9036375942752,-12.2400266872089 33.1521739130435,-34.2317482149983 33.1521739130435,-59.311594202898 0,25.2129994487967 13.4345793167076,47.291902514022 33.5144927536232,59.4927536231883 z"
       id="path3084" />
    <path
       id="path3086"
       d="m 327.5860507246381,711.0064605383006 c -9.9400546003376,-5.4747869317679 -21.3643998336493,-8.5869565217387 -33.5144927536232,-8.5869565217387 -12.0061902137129,0 -23.2952503186024,3.0511948371499 -33.1521739130436,8.4057971014485 19.9036375942753,-12.2400266872089 33.1521739130436,-34.2317482149984 33.1521739130436,-59.3115942028982 0,25.2129994487968 13.4345793167076,47.291902514022 33.5144927536232,59.4927536231884 z"
       style="fill:#000000;stroke:none" />
    <path
       style="fill:#000000;stroke:none"
       d="m 394.2527173913049,711.1876199585905 c -9.9400546003376,-5.4747869317679 -21.3643998336493,-8.5869565217388 -33.5144927536232,-8.5869565217388 -12.006190213713,0 -23.2952503186023,3.05119483715 -33.1521739130436,8.4057971014487 19.9036375942752,-12.2400266872089 33.1521739130436,-34.2317482149986 33.1521739130436,-59.3115942028983 0,25.2129994487966 13.4345793167077,47.2919025140219 33.5144927536232,59.4927536231884 z"
       id="path3088" />
    <path
       id="path3090"
       d="m 460.9193840579717,711.3687793788805 c -9.9400546003376,-5.4747869317679 -21.3643998336494,-8.5869565217387 -33.5144927536232,-8.5869565217387 -12.006190213713,0 -23.2952503186023,3.0511948371498 -33.1521739130436,8.4057971014486 19.9036375942752,-12.240026687209 33.1521739130436,-34.2317482149986 33.1521739130436,-59.3115942028983 0,25.2129994487967 13.4345793167077,47.291902514022 33.5144927536232,59.4927536231884 z"
       style="fill:#000000;stroke:none" />
    <path
       style="fill:#000000;stroke:none"
       d="m 527.586050724638,711.5499387991703 c -9.9400546003375,-5.4747869317678 -21.3643998336492,-8.5869565217386 -33.514492753623,-8.5869565217386 -12.006190213713,0 -23.2952503186023,3.0511948371498 -33.1521739130436,8.4057971014485 19.9036375942752,-12.2400266872088 33.1521739130436,-34.2317482149984 33.1521739130436,-59.311594202898 0,25.2129994487967 13.4345793167076,47.2919025140219 33.514492753623,59.4927536231882 z"
       id="path3092" />
    <path
       id="path3094"
       d="m 561.1005434782615,771.0426924223585 c -9.9400546003372,-5.4747869317679 -21.3643998336495,-8.5869565217387 -33.5144927536231,-8.5869565217387 -12.0061902137127,0 -23.2952503186022,3.0511948371499 -33.1521739130432,8.4057971014486 19.9036375942752,-12.2400266872089 33.1521739130432,-34.2317482149986 33.1521739130432,-59.3115942028983 0,25.2129994487967 13.4345793167074,47.291902514022 33.5144927536231,59.4927536231884 z"
       style="fill:#000000;stroke:none" />
    <path
       style="fill:#000000;stroke:none"
       d="m 494.4338768115953,770.8615330020685 c -9.9400546003377,-5.474786931768 -21.3643998336497,-8.5869565217387 -33.5144927536233,-8.5869565217387 -12.0061902137128,0 -23.2952503186024,3.0511948371499 -33.1521739130434,8.4057971014485 19.9036375942754,-12.2400266872088 33.1521739130434,-34.2317482149984 33.1521739130434,-59.3115942028983 0,25.2129994487968 13.4345793167076,47.2919025140221 33.5144927536233,59.4927536231885 z"
       id="path3096" />
    <path
       id="path3098"
       d="m 427.7672101449282,770.6803735817787 c -9.9400546003376,-5.4747869317677 -21.3643998336496,-8.5869565217386 -33.5144927536233,-8.5869565217386 -12.0061902137127,0 -23.2952503186023,3.0511948371498 -33.1521739130433,8.4057971014485 19.9036375942752,-12.2400266872089 33.1521739130433,-34.2317482149984 33.1521739130433,-59.3115942028982 0,25.2129994487966 13.4345793167076,47.291902514022 33.5144927536233,59.4927536231883 z"
       style="fill:#000000;stroke:none" />
    <path
       style="fill:#000000;stroke:none"
       d="m 361.1005434782614,770.4992141614889 c -9.9400546003376,-5.4747869317679 -21.3643998336496,-8.5869565217387 -33.5144927536232,-8.5869565217387 -12.0061902137128,0 -23.2952503186024,3.0511948371499 -33.1521739130434,8.4057971014486 19.9036375942752,-12.240026687209 33.1521739130434,-34.2317482149986 33.1521739130434,-59.3115942028983 0,25.2129994487966 13.4345793167075,47.291902514022 33.5144927536232,59.4927536231884 z"
       id="path3100" />
    <path
       id="path3102"
       d="m 294.4338768115946,770.318054741199 c -9.9400546003376,-5.474786931768 -21.3643998336496,-8.5869565217388 -33.5144927536232,-8.5869565217388 -12.0061902137128,0 -23.2952503186024,3.05119483715 -33.1521739130434,8.4057971014487 19.9036375942753,-12.2400266872089 33.1521739130434,-34.2317482149986 33.1521739130434,-59.3115942028982 0,25.2129994487966 13.4345793167076,47.2919025140219 33.5144927536232,59.4927536231883 z"
       style="fill:#000000;stroke:none" />
    <path
       style="fill:#000000;stroke:none"
       d="m 227.7672101449278,770.1368953209089 c -9.9400546003376,-5.474786931768 -21.3643998336496,-8.5869565217388 -33.5144927536232,-8.5869565217388 -12.0061902137128,0 -23.2952503186024,3.05119483715 -33.1521739130434,8.4057971014487 19.9036375942752,-12.2400266872089 33.1521739130434,-34.2317482149987 33.1521739130434,-59.3115942028984 0,25.2129994487968 13.4345793167075,47.2919025140221 33.5144927536232,59.4927536231885 z"
       id="path3104" />
    <path
       id="path3121"
       d="m 194.6150362318845,829.4484895238073 c -9.9400546003377,-5.474786931768 -21.3643998336495,-8.5869565217388 -33.5144927536233,-8.5869565217388 -12.006190213713,0 -23.2952503186024,3.0511948371501 -33.1521739130435,8.4057971014487 19.9036375942753,-12.2400266872088 33.1521739130435,-34.2317482149987 33.1521739130435,-59.3115942028983 0,25.2129994487968 13.4345793167077,47.2919025140219 33.5144927536233,59.4927536231884 z"
       style="fill:#000000;stroke:none" />
    <path
       style="fill:#000000;stroke:none"
       d="m 261.2817028985513,829.6296489440974 c -9.9400546003377,-5.474786931768 -21.3643998336495,-8.5869565217388 -33.5144927536234,-8.5869565217388 -12.0061902137128,0 -23.2952503186024,3.0511948371501 -33.1521739130434,8.4057971014487 19.9036375942752,-12.2400266872089 33.1521739130434,-34.2317482149987 33.1521739130434,-59.3115942028983 0,25.2129994487967 13.4345793167076,47.2919025140219 33.5144927536234,59.4927536231884 z"
       id="path3123" />
    <path
       id="path3125"
       d="m 327.948369565218,829.8108083643874 c -9.9400546003376,-5.4747869317679 -21.3643998336494,-8.5869565217388 -33.5144927536234,-8.5869565217388 -12.0061902137127,0 -23.2952503186023,3.0511948371498 -33.1521739130433,8.4057971014485 19.9036375942752,-12.2400266872087 33.1521739130432,-34.2317482149983 33.1521739130432,-59.311594202898 0,25.2129994487966 13.4345793167078,47.291902514022 33.5144927536235,59.4927536231884 z"
       style="fill:#000000;stroke:none" />
    <path
       style="fill:#000000;stroke:none"
       d="m 394.6150362318848,829.9919677846769 c -9.9400546003377,-5.4747869317678 -21.3643998336495,-8.5869565217387 -33.5144927536234,-8.5869565217387 -12.0061902137128,0 -23.2952503186023,3.0511948371499 -33.1521739130434,8.4057971014486 19.9036375942753,-12.2400266872089 33.1521739130434,-34.2317482149983 33.1521739130434,-59.3115942028982 0,25.2129994487968 13.4345793167077,47.2919025140219 33.5144927536234,59.4927536231883 z"
       id="path3127" />
    <path
       id="path3129"
       d="m 461.2817028985516,830.1731272049669 c -9.9400546003377,-5.4747869317679 -21.3643998336495,-8.5869565217388 -33.5144927536234,-8.5869565217388 -12.0061902137128,0 -23.2952503186024,3.05119483715 -33.1521739130434,8.4057971014487 19.9036375942753,-12.2400266872088 33.1521739130434,-34.2317482149982 33.1521739130434,-59.3115942028982 0,25.2129994487966 13.4345793167077,47.2919025140219 33.5144927536234,59.4927536231883 z"
       style="fill:#000000;stroke:none" />
    <path
       style="fill:#000000;stroke:none"
       d="m 494.7961956521749,889.665880828155 c -9.9400546003379,-5.4747869317678 -21.3643998336498,-8.5869565217386 -33.5144927536232,-8.5869565217386 -12.0061902137129,0 -23.2952503186023,3.0511948371501 -33.1521739130435,8.4057971014487 19.9036375942753,-12.2400266872091 33.1521739130435,-34.2317482149987 33.1521739130435,-59.3115942028983 0,25.2129994487966 13.4345793167073,47.2919025140219 33.5144927536232,59.4927536231882 z"
       id="path3131" />
    <path
       id="path3133"
       d="m 428.1295289855083,889.4847214078652 c -9.9400546003376,-5.474786931768 -21.3643998336496,-8.5869565217388 -33.5144927536232,-8.5869565217388 -12.0061902137128,0 -23.2952503186024,3.0511948371501 -33.1521739130434,8.4057971014487 19.9036375942753,-12.2400266872091 33.1521739130434,-34.2317482149987 33.1521739130434,-59.3115942028983 0,25.2129994487966 13.4345793167076,47.2919025140219 33.5144927536232,59.4927536231884 z"
       style="fill:#000000;stroke:none" />
    <path
       style="fill:#000000;stroke:none"
       d="m 361.4628623188413,889.3035619875753 c -9.9400546003377,-5.4747869317678 -21.3643998336496,-8.5869565217386 -33.5144927536232,-8.5869565217386 -12.0061902137128,0 -23.2952503186023,3.0511948371498 -33.1521739130434,8.4057971014483 19.9036375942752,-12.2400266872088 33.1521739130434,-34.2317482149984 33.1521739130434,-59.311594202898 0,25.2129994487966 13.4345793167075,47.2919025140219 33.5144927536232,59.4927536231883 z"
       id="path3135" />
    <path
       id="path3137"
       d="m 294.7961956521745,889.1224025672858 c -9.9400546003377,-5.4747869317679 -21.3643998336496,-8.5869565217387 -33.5144927536232,-8.5869565217387 -12.0061902137128,0 -23.2952503186024,3.0511948371498 -33.1521739130434,8.4057971014486 19.9036375942754,-12.240026687209 33.1521739130434,-34.2317482149987 33.1521739130434,-59.3115942028983 0,25.2129994487966 13.4345793167076,47.2919025140219 33.5144927536232,59.4927536231884 z"
       style="fill:#000000;stroke:none" />
    <path
       style="fill:#000000;stroke:none"
       d="m 228.1295289855078,888.9412431469958 c -9.9400546003377,-5.474786931768 -21.3643998336496,-8.5869565217388 -33.5144927536233,-8.5869565217388 -12.0061902137128,0 -23.2952503186024,3.05119483715 -33.1521739130434,8.4057971014487 19.9036375942752,-12.2400266872089 33.1521739130434,-34.2317482149987 33.1521739130434,-59.3115942028984 0,25.2129994487967 13.4345793167075,47.291902514022 33.5144927536233,59.4927536231885 z"
       id="path3139" />
    <path
       id="path3141"
       d="m 161.462862318841,888.7600837267057 c -9.9400546003377,-5.474786931768 -21.3643998336496,-8.5869565217388 -33.5144927536233,-8.5869565217388 -12.0061902137128,0 -23.2952503186024,3.0511948371501 -33.1521739130434,8.4057971014488 19.90363759427519,-12.240026687209 33.1521739130434,-34.2317482149988 33.1521739130434,-59.3115942028985 0,25.2129994487967 13.4345793167076,47.291902514022 33.5144927536233,59.4927536231885 z"
       style="fill:#000000;stroke:none" />
    <path
       style="fill:#000000;stroke:none"
       d="m 527.9483695652182,830.354286625257 c -9.9400546003379,-5.4747869317681 -21.3643998336497,-8.5869565217389 -33.5144927536233,-8.5869565217389 -12.0061902137127,0 -23.2952503186023,3.0511948371501 -33.1521739130433,8.4057971014488 19.9036375942753,-12.2400266872089 33.1521739130433,-34.2317482149988 33.1521739130433,-59.3115942028984 0,25.2129994487966 13.4345793167075,47.2919025140219 33.5144927536233,59.4927536231885 z"
       id="path3143" />
    <path
       id="path3145"
       d="m 594.6150362318845,830.535446045547 c -9.9400546003378,-5.474786931768 -21.3643998336497,-8.5869565217388 -33.514492753623,-8.5869565217388 -12.006190213713,0 -23.2952503186028,3.05119483715 -33.1521739130435,8.4057971014487 19.9036375942751,-12.2400266872089 33.1521739130435,-34.2317482149988 33.1521739130435,-59.3115942028984 0,25.2129994487967 13.4345793167071,47.2919025140219 33.514492753623,59.4927536231885 z"
       style="fill:#000000;stroke:none" />
    <path
       style="fill:#000000;stroke:none"
       d="m 561.4628623188414,889.8470402484451 c -9.9400546003379,-5.4747869317679 -21.3643998336497,-8.5869565217387 -33.5144927536231,-8.5869565217387 -12.0061902137128,0 -23.2952503186024,3.0511948371501 -33.1521739130434,8.4057971014486 19.903637594275,-12.2400266872089 33.1521739130434,-34.2317482149984 33.1521739130434,-59.3115942028982 0,25.2129994487967 13.4345793167072,47.291902514022 33.5144927536231,59.4927536231883 z"
       id="path3147" />
    <path
       id="path3149"
       d="m 628.1295289855077,890.0281996687351 c -9.9400546003382,-5.474786931768 -21.3643998336498,-8.5869565217389 -33.5144927536231,-8.5869565217389 -12.0061902137129,0 -23.2952503186024,3.0511948371502 -33.1521739130435,8.4057971014488 19.9036375942751,-12.240026687209 33.1521739130435,-34.2317482149986 33.1521739130435,-59.3115942028984 0,25.2129994487969 13.4345793167072,47.2919025140219 33.5144927536231,59.4927536231885 z"
       style="fill:#000000;stroke:none" />
    <path
       id="path3151"
       d="m 461.6440217391315,948.9774750310538 c -9.9400546003377,-5.4747869317679 -21.3643998336496,-8.5869565217389 -33.5144927536232,-8.5869565217389 -12.0061902137129,0 -23.2952503186023,3.0511948371498 -33.1521739130435,8.4057971014488 19.9036375942752,-12.2400266872089 33.1521739130435,-34.2317482149989 33.1521739130435,-59.3115942028985 0,25.212999448796 13.4345793167074,47.2919025140219 33.5144927536232,59.4927536231886 z"
       style="fill:#000000;stroke:none" />
    <path
       style="fill:#000000;stroke:none"
       d="m 394.9773550724649,948.7963156107637 c -9.9400546003377,-5.4747869317679 -21.3643998336494,-8.5869565217388 -33.5144927536233,-8.5869565217388 -12.0061902137127,0 -23.2952503186023,3.0511948371498 -33.1521739130433,8.4057971014475 19.9036375942752,-12.2400266872078 33.1521739130433,-34.2317482149978 33.1521739130433,-59.3115942028978 0,25.2129994487965 13.4345793167076,47.2919025140219 33.5144927536233,59.4927536231888 z"
       id="path3153" />
    <path
       id="path3155"
       d="m 328.3106884057979,948.6151561904737 c -9.9400546003376,-5.4747869317679 -21.3643998336496,-8.5869565217389 -33.5144927536232,-8.5869565217389 -12.0061902137127,0 -23.2952503186023,3.05119483715 -33.1521739130435,8.4057971014488 19.9036375942754,-12.2400266872088 33.1521739130435,-34.2317482149989 33.1521739130435,-59.3115942028978 0,25.2129994487968 13.4345793167076,47.2919025140222 33.5144927536232,59.4927536231879 z"
       style="fill:#000000;stroke:none" />
    <path
       style="fill:#000000;stroke:none"
       d="m 261.6440217391312,948.4339967701836 c -9.9400546003377,-5.4747869317679 -21.3643998336496,-8.5869565217389 -33.5144927536233,-8.5869565217389 -12.0061902137128,0 -23.2952503186024,3.05119483715 -33.1521739130433,8.4057971014488 19.9036375942752,-12.2400266872088 33.1521739130433,-34.2317482149979 33.1521739130433,-59.3115942028978 0,25.2129994487967 13.4345793167076,47.2919025140224 33.5144927536233,59.4927536231879 z"
       id="path3157" />
    <path
       id="path3159"
       d="m 194.9773550724643,948.2528373498935 c -9.9400546003376,-5.4747869317677 -21.3643998336496,-8.5869565217389 -33.5144927536232,-8.5869565217389 -12.0061902137128,0 -23.2952503186024,3.05119483715 -33.1521739130433,8.405797101449 19.9036375942752,-12.2400266872089 33.1521739130433,-34.2317482149981 33.1521739130433,-59.311594202898 0,25.2129994487968 13.4345793167075,47.2919025140221 33.5144927536232,59.4927536231879 z"
       style="fill:#000000;stroke:none" />
    <path
       style="fill:#000000;stroke:none"
       d="m 128.3106884057976,948.0716779296037 c -9.9400546003377,-5.4747869317677 -21.3643998336496,-8.586956521739 -33.5144927536233,-8.586956521739 -12.0061902137128,0 -23.2952503186024,3.05119483715 -33.15217391304341,8.405797101449 19.90363759427532,-12.2400266872089 33.15217391304341,-34.2317482149991 33.15217391304341,-59.311594202898 0,25.2129994487968 13.4345793167076,47.2919025140212 33.5144927536233,59.492753623188 z"
       id="path3161" />
    <path
       id="path3163"
       d="m 528.3106884057979,949.1586344513438 c -9.9400546003378,-5.4747869317679 -21.3643998336496,-8.5869565217389 -33.514492753623,-8.5869565217389 -12.0061902137127,0 -23.2952503186024,3.0511948371498 -33.1521739130433,8.4057971014489 19.9036375942752,-12.2400266872089 33.1521739130433,-34.2317482149992 33.1521739130433,-59.3115942028987 0,25.2129994487963 13.4345793167074,47.2919025140218 33.514492753623,59.4927536231887 z"
       style="fill:#000000;stroke:none" />
    <path
       style="fill:#000000;stroke:none"
       d="m 594.9773550724644,949.3397938716336 c -9.9400546003382,-5.4747869317677 -21.3643998336501,-8.5869565217389 -33.5144927536234,-8.5869565217389 -12.0061902137131,0 -23.2952503186024,3.0511948371498 -33.1521739130432,8.405797101449 19.9036375942751,-12.240026687209 33.1521739130432,-34.2317482149994 33.1521739130432,-59.3115942028987 0,25.2129994487964 13.4345793167072,47.2919025140218 33.5144927536234,59.4927536231886 z"
       id="path3165" />
    <path
       style="fill:#000000;stroke:none"
       d="m 661.6440217391307,949.5209532919235 c -9.9400546003382,-5.4747869317678 -21.3643998336497,-8.586956521739 -33.5144927536234,-8.586956521739 -12.0061902137126,0 -23.2952503186025,3.05119483715 -33.1521739130432,8.405797101449 19.9036375942751,-12.2400266872089 33.1521739130432,-34.2317482149991 33.1521739130432,-59.3115942028983 0,25.2129994487971 13.4345793167072,47.2919025140214 33.5144927536234,59.4927536231883 z"
       id="path3167" />
    <path
       style="fill:#000000;stroke:none"
       d="m 393.5280797101449,473.2166054658375 c -9.9400546003377,5.474786931768 -21.3643998336494,8.5869565217388 -33.5144927536233,8.5869565217388 -12.0061902137129,0 -23.2952503186023,-3.05119483715 -33.1521739130435,-8.4057971014488 19.9036375942753,12.2400266872089 33.1521739130435,34.2317482149987 33.1521739130435,59.3115942028984 0,-25.2129994487969 13.4345793167076,-47.2919025140221 33.5144927536233,-59.4927536231883 z"
       id="path3232" />
    <path
       id="path3234"
       d="m 426.6802536231884,532.5281996687358 c -9.9400546003377,5.474786931768 -21.3643998336494,8.5869565217388 -33.5144927536233,8.5869565217388 -12.0061902137129,0 -23.2952503186023,-3.0511948371501 -33.1521739130435,-8.4057971014488 19.9036375942753,12.2400266872089 33.1521739130435,34.2317482149988 33.1521739130435,59.3115942028985 0,-25.2129994487968 13.4345793167076,-47.2919025140221 33.5144927536233,-59.4927536231884 z"
       style="fill:#000000;stroke:none" />
    <path
       style="fill:#000000;stroke:none"
       d="m 360.3759057971017,532.5281996687358 c -9.9400546003377,5.474786931768 -21.3643998336493,8.5869565217388 -33.5144927536233,8.5869565217388 -12.0061902137129,0 -23.2952503186023,-3.0511948371501 -33.1521739130435,-8.4057971014488 19.9036375942754,12.2400266872089 33.1521739130435,34.2317482149988 33.1521739130435,59.3115942028985 0,-25.2129994487968 13.4345793167076,-47.2919025140221 33.5144927536233,-59.4927536231885 z"
       id="path3236" />
    <path
       id="path3238"
       d="m 327.586050724638,592.020953291924 c -9.9400546003377,5.4747869317679 -21.3643998336493,8.5869565217387 -33.5144927536233,8.5869565217387 -12.006190213713,0 -23.2952503186023,-3.0511948371501 -33.1521739130436,-8.4057971014488 19.9036375942754,12.2400266872089 33.1521739130436,34.2317482149988 33.1521739130436,59.3115942028985 0,-25.2129994487968 13.4345793167076,-47.2919025140221 33.5144927536233,-59.4927536231884 z"
       style="fill:#000000;stroke:none" />
    <path
       style="fill:#000000;stroke:none"
       d="m 394.2527173913049,591.839793871634 c -9.9400546003377,5.4747869317678 -21.3643998336493,8.5869565217386 -33.5144927536233,8.5869565217386 -12.006190213713,0 -23.2952503186023,-3.0511948371501 -33.1521739130436,-8.4057971014488 19.9036375942754,12.2400266872089 33.1521739130436,34.2317482149988 33.1521739130436,59.3115942028985 0,-25.2129994487967 13.4345793167076,-47.2919025140221 33.5144927536233,-59.4927536231883 z"
       id="path3240" />
    <path
       id="path3242"
       d="m 460.9193840579718,591.6586344513442 c -9.9400546003377,5.4747869317678 -21.3643998336493,8.5869565217386 -33.5144927536233,8.5869565217386 -12.006190213713,0 -23.2952503186023,-3.0511948371501 -33.1521739130436,-8.4057971014488 19.9036375942754,12.2400266872089 33.1521739130436,34.2317482149988 33.1521739130436,59.3115942028985 0,-25.2129994487968 13.4345793167076,-47.2919025140222 33.5144927536233,-59.4927536231883 z"
       style="fill:#000000;stroke:none" />
    <path
       style="fill:#000000;stroke:none"
       d="m 427.7672101449281,651.6948663354021 c -9.9400546003376,5.4747869317678 -21.3643998336493,8.5869565217384 -33.5144927536232,8.5869565217384 -12.006190213713,0 -23.2952503186023,-3.05119483715 -33.1521739130436,-8.4057971014488 19.9036375942754,12.240026687209 33.1521739130436,34.2317482149988 33.1521739130436,59.3115942028986 0,-25.2129994487969 13.4345793167076,-47.2919025140224 33.5144927536232,-59.4927536231883 z"
       id="path3244" />
    <path
       id="path3246"
       d="m 360.7382246376815,651.3325474948226 c -9.9400546003376,5.4747869317677 -21.3643998336493,8.5869565217383 -33.5144927536232,8.5869565217383 -12.006190213713,0 -23.2952503186023,-3.05119483715 -33.1521739130436,-8.4057971014488 19.9036375942754,12.240026687209 33.1521739130436,34.2317482149989 33.1521739130436,59.3115942028986 0,-25.2129994487968 13.4345793167076,-47.2919025140222 33.5144927536232,-59.4927536231882 z"
       style="fill:#000000;stroke:none" />
    <path
       style="fill:#000000;stroke:none"
       d="m 294.0715579710147,651.5137069151121 c -9.9400546003376,5.4747869317674 -21.3643998336493,8.5869565217382 -33.5144927536232,8.5869565217382 -12.006190213713,0 -23.2952503186023,-3.0511948371501 -33.1521739130436,-8.4057971014488 19.9036375942754,12.2400266872089 33.1521739130436,34.2317482149989 33.1521739130436,59.3115942028985 0,-25.2129994487967 13.4345793167076,-47.2919025140221 33.5144927536232,-59.4927536231879 z"
       id="path3248" />
    <path
       id="path3250"
       d="m 494.4338768115945,651.8760257556921 c -9.9400546003376,5.4747869317674 -21.3643998336493,8.5869565217383 -33.5144927536232,8.5869565217383 -12.006190213713,0 -23.2952503186023,-3.0511948371502 -33.1521739130436,-8.4057971014489 19.9036375942756,12.2400266872089 33.1521739130436,34.2317482149989 33.1521739130436,59.3115942028985 0,-25.2129994487966 13.4345793167076,-47.291902514022 33.5144927536232,-59.4927536231879 z"
       style="fill:#000000;stroke:none" />
    <path
       id="path3252"
       d="m 261.2817028985512,710.644141697721 c -9.9400546003376,5.4747869317674 -21.3643998336493,8.5869565217382 -33.5144927536232,8.5869565217382 -12.006190213713,0 -23.2952503186023,-3.0511948371501 -33.1521739130436,-8.4057971014488 19.9036375942754,12.2400266872089 33.1521739130436,34.2317482149989 33.1521739130436,59.3115942028985 0,-25.2129994487967 13.4345793167076,-47.2919025140221 33.5144927536232,-59.4927536231879 z"
       style="fill:#000000;stroke:none" />
    <path
       style="fill:#000000;stroke:none"
       d="m 327.9483695652177,710.8253011180108 c -9.9400546003376,5.4747869317675 -21.3643998336493,8.5869565217383 -33.5144927536232,8.5869565217383 -12.006190213713,0 -23.2952503186023,-3.0511948371501 -33.1521739130436,-8.4057971014488 19.9036375942754,12.2400266872089 33.1521739130436,34.2317482149989 33.1521739130436,59.3115942028985 0,-25.2129994487968 13.4345793167076,-47.2919025140222 33.5144927536232,-59.492753623188 z"
       id="path3254" />
    <path
       id="path3256"
       d="m 394.6150362318846,711.0064605383006 c -9.9400546003376,5.4747869317675 -21.3643998336493,8.5869565217383 -33.5144927536232,8.5869565217383 -12.006190213713,0 -23.2952503186023,-3.0511948371501 -33.1521739130436,-8.4057971014488 19.9036375942754,12.240026687209 33.1521739130436,34.2317482149989 33.1521739130436,59.3115942028985 0,-25.2129994487968 13.4345793167076,-47.2919025140221 33.5144927536232,-59.492753623188 z"
       style="fill:#000000;stroke:none" />
    <path
       style="fill:#000000;stroke:none"
       d="m 460.9193840579713,711.36877937888 c -9.9400546003376,5.4747869317677 -21.3643998336493,8.5869565217383 -33.5144927536232,8.5869565217383 -12.006190213713,0 -23.2952503186023,-3.05119483715 -33.1521739130436,-8.4057971014488 19.9036375942754,12.2400266872091 33.1521739130436,34.2317482149989 33.1521739130436,59.3115942028985 0,-25.2129994487968 13.4345793167076,-47.2919025140221 33.5144927536232,-59.492753623188 z"
       id="path3258" />
    <path
       id="path3260"
       d="m 527.9483695652185,711.3687793788805 c -9.9400546003376,5.4747869317675 -21.3643998336493,8.5869565217383 -33.5144927536232,8.5869565217383 -12.006190213713,0 -23.2952503186023,-3.05119483715 -33.1521739130436,-8.4057971014488 19.9036375942754,12.240026687209 33.1521739130436,34.2317482149989 33.1521739130436,59.3115942028985 0,-25.2129994487968 13.4345793167076,-47.2919025140221 33.5144927536232,-59.492753623188 z"
       style="fill:#000000;stroke:none" />
    <path
       style="fill:#000000;stroke:none"
       d="m 228.1295289855081,771.4050112629382 c -9.9400546003378,5.474786931768 -21.3643998336495,8.5869565217388 -33.5144927536233,8.5869565217388 -12.0061902137131,0 -23.2952503186024,-3.0511948371501 -33.1521739130435,-8.4057971014487 19.9036375942752,12.2400266872088 33.1521739130435,34.2317482149987 33.1521739130435,59.3115942028983 0,-25.2129994487968 13.4345793167076,-47.2919025140219 33.5144927536233,-59.4927536231884 z"
       id="path3262" />
    <path
       id="path3264"
       d="m 294.796195652175,771.2238518426481 c -9.9400546003377,5.474786931768 -21.3643998336495,8.5869565217388 -33.5144927536236,8.5869565217388 -12.0061902137127,0 -23.2952503186023,-3.0511948371501 -33.1521739130432,-8.4057971014487 19.9036375942752,12.2400266872089 33.1521739130432,34.2317482149987 33.1521739130432,59.3115942028983 0,-25.2129994487968 13.4345793167078,-47.2919025140219 33.5144927536236,-59.4927536231884 z"
       style="fill:#000000;stroke:none" />
    <path
       style="fill:#000000;stroke:none"
       d="m 361.4628623188415,771.0426924223583 c -9.9400546003376,5.4747869317678 -21.3643998336494,8.5869565217387 -33.5144927536234,8.5869565217387 -12.0061902137126,0 -23.2952503186023,-3.0511948371499 -33.1521739130432,-8.4057971014485 19.9036375942752,12.2400266872088 33.1521739130432,34.2317482149983 33.1521739130432,59.311594202898 0,-25.2129994487966 13.4345793167078,-47.291902514022 33.5144927536236,-59.4927536231883 z"
       id="path3266" />
    <path
       id="path3268"
       d="m 428.1295289855083,770.8615330020686 c -9.9400546003376,5.4747869317677 -21.3643998336493,8.5869565217386 -33.5144927536234,8.5869565217386 -12.0061902137128,0 -23.2952503186023,-3.0511948371498 -33.1521739130434,-8.4057971014485 19.9036375942754,12.2400266872089 33.1521739130434,34.2317482149984 33.1521739130434,59.3115942028982 0,-25.2129994487968 13.4345793167077,-47.291902514022 33.5144927536234,-59.4927536231883 z"
       style="fill:#000000;stroke:none" />
    <path
       style="fill:#000000;stroke:none"
       d="m 494.7961956521751,770.6803735817786 c -9.9400546003376,5.4747869317679 -21.3643998336494,8.5869565217388 -33.5144927536234,8.5869565217388 -12.0061902137128,0 -23.2952503186023,-3.05119483715 -33.1521739130434,-8.4057971014487 19.9036375942754,12.2400266872088 33.1521739130434,34.2317482149983 33.1521739130434,59.311594202898 0,-25.2129994487966 13.4345793167077,-47.2919025140219 33.5144927536234,-59.4927536231882 z"
       id="path3270" />
    <path
       id="path3272"
       d="m 561.4628623188414,770.4992141614885 c -9.9400546003379,5.4747869317681 -21.3643998336494,8.5869565217389 -33.5144927536231,8.5869565217389 -12.0061902137126,0 -23.2952503186022,-3.0511948371501 -33.1521739130431,-8.4057971014488 19.9036375942753,12.2400266872089 33.1521739130431,34.2317482149988 33.1521739130431,59.3115942028984 0,-25.2129994487966 13.4345793167076,-47.2919025140219 33.5144927536231,-59.4927536231885 z"
       style="fill:#000000;stroke:none" />
    <path
       style="fill:#000000;stroke:none"
       d="M 628.4918478260872,889.847040248445 c -9.9400546003378,5.474786931768 -21.3643998336497,8.5869565217389 -33.514492753623,8.5869565217389 -12.0061902137129,0 -23.2952503186028,-3.0511948371501 -33.1521739130435,-8.4057971014488 19.9036375942751,12.240026687209 33.1521739130435,34.2317482149988 33.1521739130435,59.3115942028984 0,-25.2129994487966 13.4345793167071,-47.2919025140219 33.514492753623,-59.4927536231885 z"
       id="path3274" />
    <path
       id="path3276"
       d="m 194.6150362318847,830.8977648861263 c -9.9400546003378,5.474786931768 -21.3643998336495,8.5869565217387 -33.5144927536233,8.5869565217387 -12.0061902137131,0 -23.2952503186024,-3.05119483715 -33.1521739130435,-8.4057971014486 19.9036375942752,12.2400266872088 33.1521739130435,34.2317482149986 33.1521739130435,59.3115942028982 0,-25.2129994487967 13.4345793167076,-47.2919025140219 33.5144927536233,-59.4927536231883 z"
       style="fill:#000000;stroke:none" />
    <path
       style="fill:#000000;stroke:none"
       d="m 261.2817028985516,830.7166054658362 c -9.9400546003377,5.474786931768 -21.3643998336495,8.5869565217387 -33.5144927536236,8.5869565217387 -12.0061902137127,0 -23.2952503186023,-3.05119483715 -33.1521739130432,-8.4057971014486 19.9036375942752,12.2400266872089 33.1521739130432,34.2317482149986 33.1521739130432,59.3115942028982 0,-25.2129994487967 13.4345793167078,-47.2919025140219 33.5144927536236,-59.4927536231883 z"
       id="path3278" />
    <path
       id="path3280"
       d="m 327.9483695652181,830.5354460455464 c -9.9400546003376,5.4747869317678 -21.3643998336495,8.5869565217387 -33.5144927536234,8.5869565217387 -12.0061902137127,0 -23.2952503186024,-3.0511948371499 -33.1521739130433,-8.4057971014486 19.9036375942752,12.2400266872088 33.1521739130433,34.2317482149983 33.1521739130433,59.3115942028982 0,-25.2129994487966 13.4345793167078,-47.291902514022 33.5144927536235,-59.4927536231883 z"
       style="fill:#000000;stroke:none" />
    <path
       style="fill:#000000;stroke:none"
       d="m 394.6150362318849,830.3542866252568 c -9.9400546003376,5.4747869317675 -21.3643998336494,8.5869565217384 -33.5144927536235,8.5869565217384 -12.0061902137127,0 -23.2952503186023,-3.0511948371496 -33.1521739130433,-8.4057971014483 19.9036375942753,12.2400266872089 33.1521739130433,34.2317482149984 33.1521739130433,59.311594202898 0,-25.2129994487967 13.4345793167077,-47.2919025140219 33.5144927536235,-59.4927536231882 z"
       id="path3282" />
    <path
       id="path3284"
       d="m 461.2817028985517,830.1731272049667 c -9.9400546003376,5.4747869317678 -21.3643998336495,8.5869565217387 -33.5144927536235,8.5869565217387 -12.0061902137127,0 -23.2952503186023,-3.0511948371499 -33.1521739130433,-8.4057971014486 19.9036375942753,12.2400266872088 33.1521739130433,34.2317482149983 33.1521739130433,59.311594202898 0,-25.2129994487966 13.4345793167077,-47.2919025140219 33.5144927536235,-59.4927536231882 z"
       style="fill:#000000;stroke:none" />
    <path
       style="fill:#000000;stroke:none"
       d="m 527.9483695652179,829.9919677846766 c -9.9400546003378,5.4747869317681 -21.3643998336494,8.5869565217389 -33.514492753623,8.5869565217389 -12.0061902137126,0 -23.2952503186022,-3.0511948371501 -33.1521739130431,-8.4057971014488 19.9036375942752,12.2400266872089 33.1521739130431,34.2317482149987 33.1521739130431,59.3115942028983 0,-25.2129994487966 13.4345793167076,-47.2919025140219 33.514492753623,-59.4927536231884 z"
       id="path3286" />
    <path
       id="path3288"
       d="m 594.6150362318843,829.8108083643866 c -9.9400546003377,5.474786931768 -21.3643998336496,8.5869565217388 -33.5144927536229,8.5869565217388 -12.0061902137129,0 -23.2952503186027,-3.05119483715 -33.1521739130435,-8.4057971014487 19.9036375942751,12.240026687209 33.1521739130435,34.2317482149988 33.1521739130435,59.3115942028984 0,-25.2129994487968 13.4345793167072,-47.2919025140219 33.5144927536229,-59.4927536231885 z"
       style="fill:#000000;stroke:none" />
    <path
       style="fill:#000000;stroke:none"
       d="m 161.8251811594213,890.0281996687349 c -9.9400546003377,5.474786931768 -21.3643998336494,8.5869565217387 -33.5144927536233,8.5869565217387 -12.0061902137131,0 -23.2952503186024,-3.05119483715 -33.15217391304347,-8.4057971014486 19.90363759427527,12.2400266872088 33.15217391304347,34.2317482149986 33.15217391304347,59.3115942028982 0,-25.2129994487968 13.4345793167077,-47.2919025140219 33.5144927536233,-59.4927536231883 z"
       id="path3290" />
    <path
       id="path3292"
       d="m 228.4918478260883,889.8470402484448 c -9.9400546003377,5.474786931768 -21.3643998336495,8.5869565217387 -33.5144927536236,8.5869565217387 -12.0061902137127,0 -23.2952503186023,-3.05119483715 -33.1521739130432,-8.4057971014486 19.9036375942752,12.2400266872089 33.1521739130432,34.2317482149986 33.1521739130432,59.3115942028982 0,-25.2129994487968 13.4345793167078,-47.2919025140219 33.5144927536236,-59.4927536231883 z"
       style="fill:#000000;stroke:none" />
    <path
       style="fill:#000000;stroke:none"
       d="M 295.1585144927548,889.665880828155 c -9.9400546003376,5.4747869317679 -21.3643998336495,8.5869565217388 -33.5144927536234,8.5869565217388 -12.0061902137127,0 -23.2952503186024,-3.05119483715 -33.1521739130433,-8.4057971014487 19.9036375942752,12.2400266872088 33.1521739130433,34.2317482149984 33.1521739130433,59.3115942028983 0,-25.2129994487966 13.4345793167078,-47.291902514022 33.5144927536234,-59.4927536231884 z"
       id="path3294" />
    <path
       id="path3296"
       d="m 361.8251811594216,889.4847214078654 c -9.9400546003376,5.4747869317674 -21.3643998336494,8.5869565217383 -33.5144927536235,8.5869565217383 -12.0061902137127,0 -23.2952503186023,-3.0511948371495 -33.1521739130433,-8.4057971014482 19.9036375942753,12.2400266872089 33.1521739130433,34.2317482149983 33.1521739130433,59.3115942028979 0,-25.2129994487967 13.4345793167077,-47.2919025140219 33.5144927536235,-59.492753623188 z"
       style="fill:#000000;stroke:none" />
    <path
       style="fill:#000000;stroke:none"
       d="m 428.4918478260884,889.3035619875753 c -9.9400546003376,5.4747869317678 -21.3643998336495,8.5869565217387 -33.5144927536236,8.5869565217387 -12.0061902137126,0 -23.2952503186023,-3.0511948371499 -33.1521739130432,-8.4057971014486 19.9036375942753,12.2400266872088 33.1521739130432,34.2317482149982 33.1521739130432,59.3115942028979 0,-25.2129994487966 13.4345793167077,-47.2919025140219 33.5144927536235,-59.492753623188 z"
       id="path3298" />
    <path
       id="path3300"
       d="m 495.1585144927546,889.1224025672852 c -9.9400546003378,5.4747869317681 -21.3643998336494,8.5869565217389 -33.514492753623,8.5869565217389 -12.0061902137126,0 -23.2952503186022,-3.0511948371501 -33.1521739130431,-8.4057971014488 19.9036375942752,12.2400266872089 33.1521739130431,34.2317482149987 33.1521739130431,59.3115942028983 0,-25.2129994487966 13.4345793167076,-47.2919025140219 33.514492753623,-59.4927536231884 z"
       style="fill:#000000;stroke:none" />
    <path
       style="fill:#000000;stroke:none"
       d="m 561.8251811594209,888.9412431469952 c -9.9400546003376,5.474786931768 -21.3643998336495,8.5869565217388 -33.5144927536228,8.5869565217388 -12.0061902137129,0 -23.2952503186028,-3.05119483715 -33.1521739130436,-8.4057971014487 19.9036375942752,12.2400266872089 33.1521739130436,34.2317482149988 33.1521739130436,59.3115942028984 0,-25.2129994487968 13.4345793167072,-47.2919025140219 33.5144927536228,-59.4927536231885 z"
       id="path3302" />
  </g>
</svg>
